<svg xmlns="http://www.w3.org/2000/svg" width="900" height="434" viewBox="0 0 900 434" font-size="15" role="img" aria-labelledby="title desc"><title id="title">Tech stack</title><desc id="desc">languages: TypeScript, JavaScript, Java, PHP, C#, SQL; frontend: Angular, React, React Native, Next.js, HTML5, CSS3; backend: Node.js, NestJS, Spring Boot, Laravel, .NET; databases: PostgreSQL, MySQL, Oracle, MongoDB, SQLite; devops: Docker, Docker Compose, GitHub Actions, Jenkins, SonarQube, Nginx, Apache, Linux, Ubuntu, WSL; tooling: Git, GitHub, Maven, npm, Yarn, NVM, Postman, Insomnia, Swagger; workflow: Jira, Confluence, Slack, VS Code, IntelliJ IDEA, Claude</desc><style>
text{font-family:'JetBrains Mono','Fira Code','SF Mono',Menlo,'Cascadia Mono','DejaVu Sans Mono',Consolas,'Liberation Mono',monospace;fill:#e6edf3}
.m{fill:#8b949e}.d{fill:#484f58}.a{fill:#3fb950}.b{fill:#79c0ff}
.fade{animation:fade .6s ease-out both}
.cover{transform-box:fill-box;transform-origin:right}
.blink{animation:blink 1.1s step-end infinite}
.draw{stroke-dasharray:1;stroke-dashoffset:0;animation:draw .9s ease-in-out both}
.pulse{animation:pulse 2.4s ease-in-out infinite}
@keyframes fade{from{opacity:0}to{opacity:1}}
@keyframes type{from{transform:scaleX(1)}to{transform:scaleX(0)}}
@keyframes blink{50%{opacity:0}}
@keyframes draw{from{stroke-dashoffset:1}to{stroke-dashoffset:0}}
@keyframes pulse{50%{opacity:.35}}
@media (prefers-reduced-motion:reduce){*{animation:none!important}.cover,.motion{display:none}}
</style><clipPath id="win"><rect x="0" y="0" width="900" height="434" rx="10"/></clipPath><g clip-path="url(#win)"><rect x="0" y="0" width="900" height="434" fill="#0d1117"/><rect x="0" y="0" width="900" height="36" fill="#161b22"/><path d="M0 36H900" stroke="#30363d"/></g><rect x="0.5" y="0.5" width="899" height="433" rx="10" fill="none" stroke="#30363d"/><circle cx="20" cy="18.0" r="5.5" fill="#484f58"/><circle cx="38" cy="18.0" r="5.5" fill="#484f58"/><circle cx="56" cy="18.0" r="5.5" fill="#484f58"/><text x="450.0" y="22.0" class="m" font-size="12" text-anchor="middle">stack.yml</text><text x="32" y="74"><tspan class="a">davi@github</tspan><tspan class="m">:</tspan><tspan class="b">~</tspan><tspan class="m">$ </tspan></text><text x="167.0" y="74" font-size="15">cat stack.yml</text><rect x="165.0" y="59" width="132.0" height="21.8" fill="#0d1117" class="cover" style="animation:type 0.81s steps(13) 0.30s both"/><text x="32" y="122" class="fade" style="animation-delay:1.41s"><tspan class="b">languages</tspan><tspan class="d">:</tspan></text><g class="fade" style="animation-delay:1.51s"><rect x="170" y="104" width="100.0" height="26" rx="6" fill="#161b22" stroke="#30363d"/><text x="181" y="121.5" font-size="13">TypeScript</text></g><g class="fade" style="animation-delay:1.55s"><rect x="278.0" y="104" width="100.0" height="26" rx="6" fill="#161b22" stroke="#30363d"/><text x="289.0" y="121.5" font-size="13">JavaScript</text></g><g class="fade" style="animation-delay:1.59s"><rect x="386.0" y="104" width="53.2" height="26" rx="6" fill="#161b22" stroke="#30363d"/><text x="397.0" y="121.5" font-size="13">Java</text></g><g class="fade" style="animation-delay:1.63s"><rect x="447.2" y="104" width="45.4" height="26" rx="6" fill="#161b22" stroke="#30363d"/><text x="458.2" y="121.5" font-size="13">PHP</text></g><g class="fade" style="animation-delay:1.67s"><rect x="500.59999999999997" y="104" width="37.6" height="26" rx="6" fill="#161b22" stroke="#30363d"/><text x="511.59999999999997" y="121.5" font-size="13">C#</text></g><g class="fade" style="animation-delay:1.71s"><rect x="546.1999999999999" y="104" width="45.4" height="26" rx="6" fill="#161b22" stroke="#30363d"/><text x="557.1999999999999" y="121.5" font-size="13">SQL</text></g><text x="32" y="162" class="fade" style="animation-delay:1.66s"><tspan class="b">frontend</tspan><tspan class="d">:</tspan></text><g class="fade" style="animation-delay:1.76s"><rect x="170" y="144" width="76.6" height="26" rx="6" fill="#161b22" stroke="#30363d"/><text x="181" y="161.5" font-size="13">Angular</text></g><g class="fade" style="animation-delay:1.80s"><rect x="254.6" y="144" width="61.0" height="26" rx="6" fill="#161b22" stroke="#30363d"/><text x="265.6" y="161.5" font-size="13">React</text></g><g class="fade" style="animation-delay:1.84s"><rect x="323.6" y="144" width="115.6" height="26" rx="6" fill="#161b22" stroke="#30363d"/><text x="334.6" y="161.5" font-size="13">React Native</text></g><g class="fade" style="animation-delay:1.88s"><rect x="447.20000000000005" y="144" width="76.6" height="26" rx="6" fill="#161b22" stroke="#30363d"/><text x="458.20000000000005" y="161.5" font-size="13">Next.js</text></g><g class="fade" style="animation-delay:1.92s"><rect x="531.8000000000001" y="144" width="61.0" height="26" rx="6" fill="#161b22" stroke="#30363d"/><text x="542.8000000000001" y="161.5" font-size="13">HTML5</text></g><g class="fade" style="animation-delay:1.96s"><rect x="600.8000000000001" y="144" width="53.2" height="26" rx="6" fill="#161b22" stroke="#30363d"/><text x="611.8000000000001" y="161.5" font-size="13">CSS3</text></g><text x="32" y="202" class="fade" style="animation-delay:1.91s"><tspan class="b">backend</tspan><tspan class="d">:</tspan></text><g class="fade" style="animation-delay:2.01s"><rect x="170" y="184" width="76.6" height="26" rx="6" fill="#161b22" stroke="#30363d"/><text x="181" y="201.5" font-size="13">Node.js</text></g><g class="fade" style="animation-delay:2.05s"><rect x="254.6" y="184" width="68.8" height="26" rx="6" fill="#161b22" stroke="#30363d"/><text x="265.6" y="201.5" font-size="13">NestJS</text></g><g class="fade" style="animation-delay:2.09s"><rect x="331.4" y="184" width="107.8" height="26" rx="6" fill="#161b22" stroke="#30363d"/><text x="342.4" y="201.5" font-size="13">Spring Boot</text></g><g class="fade" style="animation-delay:2.13s"><rect x="447.2" y="184" width="76.6" height="26" rx="6" fill="#161b22" stroke="#30363d"/><text x="458.2" y="201.5" font-size="13">Laravel</text></g><g class="fade" style="animation-delay:2.17s"><rect x="531.8" y="184" width="53.2" height="26" rx="6" fill="#161b22" stroke="#30363d"/><text x="542.8" y="201.5" font-size="13">.NET</text></g><text x="32" y="242" class="fade" style="animation-delay:2.16s"><tspan class="b">databases</tspan><tspan class="d">:</tspan></text><g class="fade" style="animation-delay:2.26s"><rect x="170" y="224" width="100.0" height="26" rx="6" fill="#161b22" stroke="#30363d"/><text x="181" y="241.5" font-size="13">PostgreSQL</text></g><g class="fade" style="animation-delay:2.30s"><rect x="278.0" y="224" width="61.0" height="26" rx="6" fill="#161b22" stroke="#30363d"/><text x="289.0" y="241.5" font-size="13">MySQL</text></g><g class="fade" style="animation-delay:2.34s"><rect x="347.0" y="224" width="68.8" height="26" rx="6" fill="#161b22" stroke="#30363d"/><text x="358.0" y="241.5" font-size="13">Oracle</text></g><g class="fade" style="animation-delay:2.38s"><rect x="423.8" y="224" width="76.6" height="26" rx="6" fill="#161b22" stroke="#30363d"/><text x="434.8" y="241.5" font-size="13">MongoDB</text></g><g class="fade" style="animation-delay:2.42s"><rect x="508.4" y="224" width="68.8" height="26" rx="6" fill="#161b22" stroke="#30363d"/><text x="519.4" y="241.5" font-size="13">SQLite</text></g><text x="32" y="282" class="fade" style="animation-delay:2.41s"><tspan class="b">devops</tspan><tspan class="d">:</tspan></text><g class="fade" style="animation-delay:2.51s"><rect x="170" y="264" width="68.8" height="26" rx="6" fill="#161b22" stroke="#30363d"/><text x="181" y="281.5" font-size="13">Docker</text></g><g class="fade" style="animation-delay:2.55s"><rect x="246.8" y="264" width="131.2" height="26" rx="6" fill="#161b22" stroke="#30363d"/><text x="257.8" y="281.5" font-size="13">Docker Compose</text></g><g class="fade" style="animation-delay:2.59s"><rect x="386.0" y="264" width="131.2" height="26" rx="6" fill="#161b22" stroke="#30363d"/><text x="397.0" y="281.5" font-size="13">GitHub Actions</text></g><g class="fade" style="animation-delay:2.63s"><rect x="525.2" y="264" width="76.6" height="26" rx="6" fill="#161b22" stroke="#30363d"/><text x="536.2" y="281.5" font-size="13">Jenkins</text></g><g class="fade" style="animation-delay:2.67s"><rect x="609.8000000000001" y="264" width="92.2" height="26" rx="6" fill="#161b22" stroke="#30363d"/><text x="620.8000000000001" y="281.5" font-size="13">SonarQube</text></g><g class="fade" style="animation-delay:2.71s"><rect x="710.0000000000001" y="264" width="61.0" height="26" rx="6" fill="#161b22" stroke="#30363d"/><text x="721.0000000000001" y="281.5" font-size="13">Nginx</text></g><g class="fade" style="animation-delay:2.75s"><rect x="779.0000000000001" y="264" width="68.8" height="26" rx="6" fill="#161b22" stroke="#30363d"/><text x="790.0000000000001" y="281.5" font-size="13">Apache</text></g><g class="fade" style="animation-delay:2.79s"><rect x="170" y="298" width="61.0" height="26" rx="6" fill="#161b22" stroke="#30363d"/><text x="181" y="315.5" font-size="13">Linux</text></g><g class="fade" style="animation-delay:2.83s"><rect x="239.0" y="298" width="68.8" height="26" rx="6" fill="#161b22" stroke="#30363d"/><text x="250.0" y="315.5" font-size="13">Ubuntu</text></g><g class="fade" style="animation-delay:2.87s"><rect x="315.8" y="298" width="45.4" height="26" rx="6" fill="#161b22" stroke="#30363d"/><text x="326.8" y="315.5" font-size="13">WSL</text></g><text x="32" y="356" class="fade" style="animation-delay:2.66s"><tspan class="b">tooling</tspan><tspan class="d">:</tspan></text><g class="fade" style="animation-delay:2.76s"><rect x="170" y="338" width="45.4" height="26" rx="6" fill="#161b22" stroke="#30363d"/><text x="181" y="355.5" font-size="13">Git</text></g><g class="fade" style="animation-delay:2.80s"><rect x="223.4" y="338" width="68.8" height="26" rx="6" fill="#161b22" stroke="#30363d"/><text x="234.4" y="355.5" font-size="13">GitHub</text></g><g class="fade" style="animation-delay:2.84s"><rect x="300.2" y="338" width="61.0" height="26" rx="6" fill="#161b22" stroke="#30363d"/><text x="311.2" y="355.5" font-size="13">Maven</text></g><g class="fade" style="animation-delay:2.88s"><rect x="369.2" y="338" width="45.4" height="26" rx="6" fill="#161b22" stroke="#30363d"/><text x="380.2" y="355.5" font-size="13">npm</text></g><g class="fade" style="animation-delay:2.92s"><rect x="422.59999999999997" y="338" width="53.2" height="26" rx="6" fill="#161b22" stroke="#30363d"/><text x="433.59999999999997" y="355.5" font-size="13">Yarn</text></g><g class="fade" style="animation-delay:2.96s"><rect x="483.79999999999995" y="338" width="45.4" height="26" rx="6" fill="#161b22" stroke="#30363d"/><text x="494.79999999999995" y="355.5" font-size="13">NVM</text></g><g class="fade" style="animation-delay:3.00s"><rect x="537.1999999999999" y="338" width="76.6" height="26" rx="6" fill="#161b22" stroke="#30363d"/><text x="548.1999999999999" y="355.5" font-size="13">Postman</text></g><g class="fade" style="animation-delay:3.04s"><rect x="621.8" y="338" width="84.4" height="26" rx="6" fill="#161b22" stroke="#30363d"/><text x="632.8" y="355.5" font-size="13">Insomnia</text></g><g class="fade" style="animation-delay:3.08s"><rect x="714.1999999999999" y="338" width="76.6" height="26" rx="6" fill="#161b22" stroke="#30363d"/><text x="725.1999999999999" y="355.5" font-size="13">Swagger</text></g><text x="32" y="396" class="fade" style="animation-delay:2.91s"><tspan class="b">workflow</tspan><tspan class="d">:</tspan></text><g class="fade" style="animation-delay:3.01s"><rect x="170" y="378" width="53.2" height="26" rx="6" fill="#161b22" stroke="#30363d"/><text x="181" y="395.5" font-size="13">Jira</text></g><g class="fade" style="animation-delay:3.05s"><rect x="231.2" y="378" width="100.0" height="26" rx="6" fill="#161b22" stroke="#30363d"/><text x="242.2" y="395.5" font-size="13">Confluence</text></g><g class="fade" style="animation-delay:3.09s"><rect x="339.2" y="378" width="61.0" height="26" rx="6" fill="#161b22" stroke="#30363d"/><text x="350.2" y="395.5" font-size="13">Slack</text></g><g class="fade" style="animation-delay:3.13s"><rect x="408.2" y="378" width="76.6" height="26" rx="6" fill="#161b22" stroke="#30363d"/><text x="419.2" y="395.5" font-size="13">VS Code</text></g><g class="fade" style="animation-delay:3.17s"><rect x="492.79999999999995" y="378" width="123.39999999999999" height="26" rx="6" fill="#161b22" stroke="#30363d"/><text x="503.79999999999995" y="395.5" font-size="13">IntelliJ IDEA</text></g><g class="fade" style="animation-delay:3.21s"><rect x="624.1999999999999" y="378" width="68.8" height="26" rx="6" fill="#161b22" stroke="#30363d"/><text x="635.1999999999999" y="395.5" font-size="13">Claude</text></g></svg>
