<svg xmlns="http://www.w3.org/2000/svg" width="440" height="668" viewBox="0 0 440 668" font-size="15" role="img" aria-labelledby="title desc"><title id="title">Tech stack</title><desc id="desc">languages: TypeScript, JavaScript, Java, PHP, C#, SQL; frontend: Angular, React, React Native, Next.js, HTML5, CSS3; backend: Node.js, NestJS, Spring Boot, Laravel, .NET; databases: PostgreSQL, MySQL, Oracle, MongoDB, SQLite; devops: Docker, Docker Compose, GitHub Actions, Jenkins, SonarQube, Nginx, Apache, Linux, Ubuntu, WSL; tooling: Git, GitHub, Maven, npm, Yarn, NVM, Postman, Insomnia, Swagger; workflow: Jira, Confluence, Slack, VS Code, IntelliJ IDEA, Claude</desc><style>
text{font-family:'JetBrains Mono','Fira Code','SF Mono',Menlo,'Cascadia Mono','DejaVu Sans Mono',Consolas,'Liberation Mono',monospace;fill:#e6edf3}
.m{fill:#8b949e}.d{fill:#484f58}.a{fill:#3fb950}.b{fill:#79c0ff}
.fade{animation:fade .6s ease-out both}
.cover{transform-box:fill-box;transform-origin:right}
.blink{animation:blink 1.1s step-end infinite}
.draw{stroke-dasharray:1;stroke-dashoffset:0;animation:draw .9s ease-in-out both}
.pulse{animation:pulse 2.4s ease-in-out infinite}
@keyframes fade{from{opacity:0}to{opacity:1}}
@keyframes type{from{transform:scaleX(1)}to{transform:scaleX(0)}}
@keyframes blink{50%{opacity:0}}
@keyframes draw{from{stroke-dashoffset:1}to{stroke-dashoffset:0}}
@keyframes pulse{50%{opacity:.35}}
@media (prefers-reduced-motion:reduce){*{animation:none!important}.cover,.motion{display:none}}
</style><clipPath id="win"><rect x="0" y="0" width="440" height="668" rx="10"/></clipPath><g clip-path="url(#win)"><rect x="0" y="0" width="440" height="668" fill="#0d1117"/><rect x="0" y="0" width="440" height="36" fill="#161b22"/><path d="M0 36H440" stroke="#30363d"/></g><rect x="0.5" y="0.5" width="439" height="667" rx="10" fill="none" stroke="#30363d"/><circle cx="20" cy="18.0" r="5.5" fill="#484f58"/><circle cx="38" cy="18.0" r="5.5" fill="#484f58"/><circle cx="56" cy="18.0" r="5.5" fill="#484f58"/><text x="220.0" y="22.0" class="m" font-size="12" text-anchor="middle">stack.yml</text><text x="32" y="72"><tspan class="a">davi@github</tspan><tspan class="m">:</tspan><tspan class="b">~</tspan><tspan class="m">$ </tspan></text><text x="167.0" y="72" font-size="15">cat stack.yml</text><rect x="165.0" y="57" width="132.0" height="21.8" fill="#0d1117" class="cover" style="animation:type 0.81s steps(13) 0.30s both"/><text x="32" y="114" class="fade" font-size="14" style="animation-delay:1.41s"><tspan class="b">languages</tspan><tspan class="d">:</tspan></text><g class="fade" style="animation-delay:1.51s"><rect x="44" y="122" width="90.0" height="24" rx="6" fill="#161b22" stroke="#30363d"/><text x="53" y="138.5" font-size="12">TypeScript</text></g><g class="fade" style="animation-delay:1.55s"><rect x="140.0" y="122" width="90.0" height="24" rx="6" fill="#161b22" stroke="#30363d"/><text x="149.0" y="138.5" font-size="12">JavaScript</text></g><g class="fade" style="animation-delay:1.59s"><rect x="236.0" y="122" width="46.8" height="24" rx="6" fill="#161b22" stroke="#30363d"/><text x="245.0" y="138.5" font-size="12">Java</text></g><g class="fade" style="animation-delay:1.63s"><rect x="288.8" y="122" width="39.6" height="24" rx="6" fill="#161b22" stroke="#30363d"/><text x="297.8" y="138.5" font-size="12">PHP</text></g><g class="fade" style="animation-delay:1.67s"><rect x="334.4" y="122" width="32.4" height="24" rx="6" fill="#161b22" stroke="#30363d"/><text x="343.4" y="138.5" font-size="12">C#</text></g><g class="fade" style="animation-delay:1.71s"><rect x="372.79999999999995" y="122" width="39.6" height="24" rx="6" fill="#161b22" stroke="#30363d"/><text x="381.79999999999995" y="138.5" font-size="12">SQL</text></g><text x="32" y="172" class="fade" font-size="14" style="animation-delay:1.66s"><tspan class="b">frontend</tspan><tspan class="d">:</tspan></text><g class="fade" style="animation-delay:1.76s"><rect x="44" y="180" width="68.4" height="24" rx="6" fill="#161b22" stroke="#30363d"/><text x="53" y="196.5" font-size="12">Angular</text></g><g class="fade" style="animation-delay:1.80s"><rect x="118.4" y="180" width="54.0" height="24" rx="6" fill="#161b22" stroke="#30363d"/><text x="127.4" y="196.5" font-size="12">React</text></g><g class="fade" style="animation-delay:1.84s"><rect x="178.4" y="180" width="104.4" height="24" rx="6" fill="#161b22" stroke="#30363d"/><text x="187.4" y="196.5" font-size="12">React Native</text></g><g class="fade" style="animation-delay:1.88s"><rect x="288.8" y="180" width="68.4" height="24" rx="6" fill="#161b22" stroke="#30363d"/><text x="297.8" y="196.5" font-size="12">Next.js</text></g><g class="fade" style="animation-delay:1.92s"><rect x="363.20000000000005" y="180" width="54.0" height="24" rx="6" fill="#161b22" stroke="#30363d"/><text x="372.20000000000005" y="196.5" font-size="12">HTML5</text></g><g class="fade" style="animation-delay:1.96s"><rect x="44" y="210" width="46.8" height="24" rx="6" fill="#161b22" stroke="#30363d"/><text x="53" y="226.5" font-size="12">CSS3</text></g><text x="32" y="260" class="fade" font-size="14" style="animation-delay:1.91s"><tspan class="b">backend</tspan><tspan class="d">:</tspan></text><g class="fade" style="animation-delay:2.01s"><rect x="44" y="268" width="68.4" height="24" rx="6" fill="#161b22" stroke="#30363d"/><text x="53" y="284.5" font-size="12">Node.js</text></g><g class="fade" style="animation-delay:2.05s"><rect x="118.4" y="268" width="61.2" height="24" rx="6" fill="#161b22" stroke="#30363d"/><text x="127.4" y="284.5" font-size="12">NestJS</text></g><g class="fade" style="animation-delay:2.09s"><rect x="185.6" y="268" width="97.2" height="24" rx="6" fill="#161b22" stroke="#30363d"/><text x="194.6" y="284.5" font-size="12">Spring Boot</text></g><g class="fade" style="animation-delay:2.13s"><rect x="288.8" y="268" width="68.4" height="24" rx="6" fill="#161b22" stroke="#30363d"/><text x="297.8" y="284.5" font-size="12">Laravel</text></g><g class="fade" style="animation-delay:2.17s"><rect x="363.20000000000005" y="268" width="46.8" height="24" rx="6" fill="#161b22" stroke="#30363d"/><text x="372.20000000000005" y="284.5" font-size="12">.NET</text></g><text x="32" y="318" class="fade" font-size="14" style="animation-delay:2.16s"><tspan class="b">databases</tspan><tspan class="d">:</tspan></text><g class="fade" style="animation-delay:2.26s"><rect x="44" y="326" width="90.0" height="24" rx="6" fill="#161b22" stroke="#30363d"/><text x="53" y="342.5" font-size="12">PostgreSQL</text></g><g class="fade" style="animation-delay:2.30s"><rect x="140.0" y="326" width="54.0" height="24" rx="6" fill="#161b22" stroke="#30363d"/><text x="149.0" y="342.5" font-size="12">MySQL</text></g><g class="fade" style="animation-delay:2.34s"><rect x="200.0" y="326" width="61.2" height="24" rx="6" fill="#161b22" stroke="#30363d"/><text x="209.0" y="342.5" font-size="12">Oracle</text></g><g class="fade" style="animation-delay:2.38s"><rect x="267.2" y="326" width="68.4" height="24" rx="6" fill="#161b22" stroke="#30363d"/><text x="276.2" y="342.5" font-size="12">MongoDB</text></g><g class="fade" style="animation-delay:2.42s"><rect x="341.6" y="326" width="61.2" height="24" rx="6" fill="#161b22" stroke="#30363d"/><text x="350.6" y="342.5" font-size="12">SQLite</text></g><text x="32" y="376" class="fade" font-size="14" style="animation-delay:2.41s"><tspan class="b">devops</tspan><tspan class="d">:</tspan></text><g class="fade" style="animation-delay:2.51s"><rect x="44" y="384" width="61.2" height="24" rx="6" fill="#161b22" stroke="#30363d"/><text x="53" y="400.5" font-size="12">Docker</text></g><g class="fade" style="animation-delay:2.55s"><rect x="111.19999999999999" y="384" width="118.8" height="24" rx="6" fill="#161b22" stroke="#30363d"/><text x="120.19999999999999" y="400.5" font-size="12">Docker Compose</text></g><g class="fade" style="animation-delay:2.59s"><rect x="236.0" y="384" width="118.8" height="24" rx="6" fill="#161b22" stroke="#30363d"/><text x="245.0" y="400.5" font-size="12">GitHub Actions</text></g><g class="fade" style="animation-delay:2.63s"><rect x="44" y="414" width="68.4" height="24" rx="6" fill="#161b22" stroke="#30363d"/><text x="53" y="430.5" font-size="12">Jenkins</text></g><g class="fade" style="animation-delay:2.67s"><rect x="118.4" y="414" width="82.8" height="24" rx="6" fill="#161b22" stroke="#30363d"/><text x="127.4" y="430.5" font-size="12">SonarQube</text></g><g class="fade" style="animation-delay:2.71s"><rect x="207.2" y="414" width="54.0" height="24" rx="6" fill="#161b22" stroke="#30363d"/><text x="216.2" y="430.5" font-size="12">Nginx</text></g><g class="fade" style="animation-delay:2.75s"><rect x="267.2" y="414" width="61.2" height="24" rx="6" fill="#161b22" stroke="#30363d"/><text x="276.2" y="430.5" font-size="12">Apache</text></g><g class="fade" style="animation-delay:2.79s"><rect x="334.4" y="414" width="54.0" height="24" rx="6" fill="#161b22" stroke="#30363d"/><text x="343.4" y="430.5" font-size="12">Linux</text></g><g class="fade" style="animation-delay:2.83s"><rect x="44" y="444" width="61.2" height="24" rx="6" fill="#161b22" stroke="#30363d"/><text x="53" y="460.5" font-size="12">Ubuntu</text></g><g class="fade" style="animation-delay:2.87s"><rect x="111.19999999999999" y="444" width="39.6" height="24" rx="6" fill="#161b22" stroke="#30363d"/><text x="120.19999999999999" y="460.5" font-size="12">WSL</text></g><text x="32" y="494" class="fade" font-size="14" style="animation-delay:2.66s"><tspan class="b">tooling</tspan><tspan class="d">:</tspan></text><g class="fade" style="animation-delay:2.76s"><rect x="44" y="502" width="39.6" height="24" rx="6" fill="#161b22" stroke="#30363d"/><text x="53" y="518.5" font-size="12">Git</text></g><g class="fade" style="animation-delay:2.80s"><rect x="89.6" y="502" width="61.2" height="24" rx="6" fill="#161b22" stroke="#30363d"/><text x="98.6" y="518.5" font-size="12">GitHub</text></g><g class="fade" style="animation-delay:2.84s"><rect x="156.79999999999998" y="502" width="54.0" height="24" rx="6" fill="#161b22" stroke="#30363d"/><text x="165.79999999999998" y="518.5" font-size="12">Maven</text></g><g class="fade" style="animation-delay:2.88s"><rect x="216.79999999999998" y="502" width="39.6" height="24" rx="6" fill="#161b22" stroke="#30363d"/><text x="225.79999999999998" y="518.5" font-size="12">npm</text></g><g class="fade" style="animation-delay:2.92s"><rect x="262.4" y="502" width="46.8" height="24" rx="6" fill="#161b22" stroke="#30363d"/><text x="271.4" y="518.5" font-size="12">Yarn</text></g><g class="fade" style="animation-delay:2.96s"><rect x="315.2" y="502" width="39.6" height="24" rx="6" fill="#161b22" stroke="#30363d"/><text x="324.2" y="518.5" font-size="12">NVM</text></g><g class="fade" style="animation-delay:3.00s"><rect x="44" y="532" width="68.4" height="24" rx="6" fill="#161b22" stroke="#30363d"/><text x="53" y="548.5" font-size="12">Postman</text></g><g class="fade" style="animation-delay:3.04s"><rect x="118.4" y="532" width="75.6" height="24" rx="6" fill="#161b22" stroke="#30363d"/><text x="127.4" y="548.5" font-size="12">Insomnia</text></g><g class="fade" style="animation-delay:3.08s"><rect x="200.0" y="532" width="68.4" height="24" rx="6" fill="#161b22" stroke="#30363d"/><text x="209.0" y="548.5" font-size="12">Swagger</text></g><text x="32" y="582" class="fade" font-size="14" style="animation-delay:2.91s"><tspan class="b">workflow</tspan><tspan class="d">:</tspan></text><g class="fade" style="animation-delay:3.01s"><rect x="44" y="590" width="46.8" height="24" rx="6" fill="#161b22" stroke="#30363d"/><text x="53" y="606.5" font-size="12">Jira</text></g><g class="fade" style="animation-delay:3.05s"><rect x="96.8" y="590" width="90.0" height="24" rx="6" fill="#161b22" stroke="#30363d"/><text x="105.8" y="606.5" font-size="12">Confluence</text></g><g class="fade" style="animation-delay:3.09s"><rect x="192.8" y="590" width="54.0" height="24" rx="6" fill="#161b22" stroke="#30363d"/><text x="201.8" y="606.5" font-size="12">Slack</text></g><g class="fade" style="animation-delay:3.13s"><rect x="252.8" y="590" width="68.4" height="24" rx="6" fill="#161b22" stroke="#30363d"/><text x="261.8" y="606.5" font-size="12">VS Code</text></g><g class="fade" style="animation-delay:3.17s"><rect x="44" y="620" width="111.6" height="24" rx="6" fill="#161b22" stroke="#30363d"/><text x="53" y="636.5" font-size="12">IntelliJ IDEA</text></g><g class="fade" style="animation-delay:3.21s"><rect x="161.6" y="620" width="61.2" height="24" rx="6" fill="#161b22" stroke="#30363d"/><text x="170.6" y="636.5" font-size="12">Claude</text></g></svg>
